<svg width="25" height="25" viewBox="0 0 25 25" fill="none" xmlns="http://www.w3.org/2000/svg">
<path d="M6.87134 18.9091V21.1591" stroke="#6D737A" stroke-width="1.60606" stroke-linecap="round" stroke-linejoin="round"/>
<path d="M17.3713 18.9091V21.1591" stroke="#6D737A" stroke-width="1.60606" stroke-linecap="round" stroke-linejoin="round"/>
<path d="M5.37134 10.6591V5.78406C5.37134 5.28678 5.56888 4.80986 5.92051 4.45823C6.27214 4.1066 6.74906 3.90906 7.24634 3.90906C7.74362 3.90906 8.22053 4.1066 8.57216 4.45823C8.92379 4.80986 9.12134 5.28678 9.12134 5.78406" stroke="#6D737A" stroke-width="1.60606" stroke-linecap="round" stroke-linejoin="round"/>
<path d="M18.8713 9.90906H12.8713V14.4091H18.8713V9.90906Z" stroke="#6D737A" stroke-width="1.60606" stroke-linecap="round" stroke-linejoin="round"/>
<path d="M18.8713 10.6591H21.8713C22.0703 10.6591 22.261 10.7381 22.4017 10.8787C22.5423 11.0194 22.6213 11.2101 22.6213 11.4091V14.4091C22.6213 15.6025 22.1472 16.7471 21.3033 17.591C20.4594 18.435 19.3148 18.9091 18.1213 18.9091H6.12134C4.92786 18.9091 3.78327 18.435 2.93936 17.591C2.09544 16.7471 1.62134 15.6025 1.62134 14.4091V11.4091C1.62134 11.2101 1.70036 11.0194 1.84101 10.8787C1.98166 10.7381 2.17243 10.6591 2.37134 10.6591H12.8713" stroke="#6D737A" stroke-width="1.60606" stroke-linecap="round" stroke-linejoin="round"/>
</svg>
